<svg xmlns="http://www.w3.org/2000/svg" viewBox="0 0 675 495"><defs><style>.cls-1{fill:#ffbdac;}.cls-2{fill:#8cac3f;}.cls-3{fill:#a67c52;}</style></defs><g id="Layer_2" data-name="Layer 2"><g id="Final_Design_1.0_copy" data-name="Final Design 1.0 copy"><rect width="30" height="240"/><rect x="420" width="30" height="240"/><rect x="465" y="165" width="30" height="120" transform="translate(705 -255) rotate(90)"/><rect x="45" y="-45" width="30" height="120" transform="translate(75 -45) rotate(90)"/><rect x="45" y="45" width="30" height="120" transform="translate(165 45) rotate(90)"/><rect x="555" width="30" height="240"/><rect x="600" y="-45" width="30" height="120" transform="translate(630 -600) rotate(90)"/><rect x="600" y="45" width="30" height="120" transform="translate(720 -510) rotate(90)"/><rect x="600" y="165" width="30" height="120" transform="translate(840 -390) rotate(90)"/><rect x="165" y="30" width="30" height="90" transform="translate(255 -105) rotate(90)"/><rect x="165" y="90" width="30" height="90" transform="translate(315 -45) rotate(90)"/><rect x="135" y="60" width="30" height="180"/><rect x="195" y="60" width="30" height="180"/><rect x="165" y="225" width="30" height="90" transform="translate(450 90) rotate(90)"/><rect x="165" y="285" width="30" height="90" transform="translate(510 150) rotate(90)"/><rect x="135" y="255" width="30" height="105"/><rect x="195" y="255" width="30" height="240"/><polygon points="675 253 632.57 253 614.5 271.07 597.43 254 555 254 600 299 600 495 630 495 630 298 675 253"/><rect x="240" y="255" width="30" height="240"/><polygon points="362.57 255 258.09 359.49 279.3 380.7 405 255 362.57 255"/><polygon points="362.57 495 258.09 390.51 279.3 369.3 405 495 362.57 495"/><rect x="262" y="360" width="16" height="20"/><polygon points="405 431.36 363.64 390 405 390 405 360 363.64 360 405 318.64 405 276.21 306.21 375 405 473.79 405 431.36"/><polygon class="cls-1" points="328.35 185.43 323.22 185.43 321.78 185.43 317.49 185.43 314.86 185.43 309.96 190.33 309.96 197.25 314.86 202.14 317.49 202.14 321.78 202.14 323.22 202.14 328.35 202.14 330.14 202.14 335.04 197.25 335.04 190.33 330.14 185.43 328.35 185.43"/><path class="cls-1" d="M360,120V0H240V191.67L288.33,240h68.34L405,191.67V120Zm15.41,42H360.34l2.85,2.85v33.58L339.44,222.2H305.56l-23.75-23.74V164.88l2.85-2.85H269.59V137.8h24.24v15.07l11.73-11.73h33.88l11.73,11.73V137.8h24.24Z"/><path class="cls-2" d="M536.67,255H468.33L420,303.33V495h30V375h15L585,495V452.57L507.43,375H585V303.33Zm-35,102.2-52-51.35,33.43-33,20.28,20,20.35-20.08,31.76,31.34Z"/><path class="cls-3" d="M120,375V255H0V446.67L48.33,495h68.34L165,446.67V375Zm15.41,77.48L110.69,477.2H54.31L29.59,452.48v-35l11.85-11.85,8.44,24.63-.61-32.46,5-5h22l12.86,37.5-.71-37.5h22.24l7.44,7.44,10.3,30.06-.38-20.13,7.36,7.35Z"/></g></g></svg>